<svg version="1" xmlns="http://www.w3.org/2000/svg" viewBox="0 0 123 112"><path d="M95.55 112H61.725c-9.625 0-17.325-2.75-22.825-8-10.175-9.5-9.625-23.75-9.625-24.25v-58c0-2 1.375-4 3.3-4.75 2.2-.75 4.4-.5 6.325.75l34.65 27c2.475 2 2.75 5.25.55 7.5s-5.775 2.5-8.25.5l-25.025-19.5V80c0 .25-.275 10.5 6.325 16.75 3.575 3.25 8.25 4.75 14.575 4.75h33.55c9.075 0 16.5-6.75 16.5-15v-61c0-6.5-4.675-12.25-11.55-14.25-3.025-1-4.675-3.75-3.85-6.75.825-3 4.4-4.25 7.425-3.5 11.825 3.5 19.8 13.25 19.8 24.5v61c0 14.25-12.65 25.5-28.05 25.5zm-68.2-4.5c1.1-2.75-.825-5.75-3.85-6.75-6.875-2-11.55-7.75-11.55-14.25v-61c0-8.25 7.425-15 16.5-15H62c6.325 0 11 1.5 14.575 4.75C83.175 21.5 82.9 31.75 82.9 32v46.75l-25.025-19.5c-2.475-2-6.05-1.75-8.25.5s-1.925 5.5.55 7.5l34.65 27c1.65 1.25 4.125 1.75 6.325.75 2.2-.75 3.3-2.75 3.3-4.75v-58c0-.5.55-14.75-9.625-24.25C79.05 2.75 71.35 0 62 0H28.175C12.775 0 .125 11.25.125 25.5v61c0 11.25 7.975 21 19.8 24.5.55.25 1.1.25 1.65.25 2.475 0 4.95-1.5 5.775-3.75z"/></svg>
